<?xml version="1.0" encoding="UTF-8"?>
<svg version="1.1" xmlns="http://www.w3.org/2000/svg" width="275" height="191">
<path d="M0 0 C90.75 0 181.5 0 275 0 C275 63.03 275 126.06 275 191 C184.25 191 93.5 191 0 191 C0 127.97 0 64.94 0 0 Z " fill="#FDFCFC" transform="translate(0,0)"/>
<path d="M0 0 C90.75 0 181.5 0 275 0 C275 54.78 275 109.56 275 166 C260 164 260 164 253 162 C252.87625 161.030625 252.7525 160.06125 252.625 159.0625 C250.57908636 145.11516425 244.85889775 133.70275177 236.93359375 122.11328125 C235.2085434 118.20846016 237.21277714 114.1313199 238.55859375 110.26953125 C238.86216797 109.38330078 239.16574219 108.49707031 239.47851562 107.58398438 C240.11138593 105.7549763 240.74675141 103.92682946 241.38476562 102.09960938 C244.75652167 92.22670847 248.61716292 80.66186924 244.625 70.5 C243.09448852 67.95615238 243.09448852 67.95615238 241 66 C231.30074299 64.58919898 223.63254136 70.63659256 216 76 C215.52175781 75.67128906 215.04351562 75.34257813 214.55078125 75.00390625 C200.63054216 66.0395638 184.67656645 60.70847336 169.0625 55.5 C168.40689087 55.28049683 167.75128174 55.06099365 167.07580566 54.83483887 C161.07129807 52.83434079 155.27834158 50.91046862 149 50 C148.773125 48.700625 148.54625 47.40125 148.3125 46.0625 C146.89278638 39.67882313 143.67639186 31.67295944 138 28 C133.80064422 27.92364808 131.75084672 28.32619456 128.6015625 31.15234375 C125.82114495 34.19577377 123.29332037 37.33725622 120.8125 40.625 C120.37486328 41.19734375 119.93722656 41.7696875 119.48632812 42.359375 C117.57904246 44.8635974 115.74667466 47.37998801 114 50 C111.77734375 50.8515625 111.77734375 50.8515625 108.9375 51.625 C92.05608703 56.95490589 76.98648123 67.06165115 65 80 C64.56429687 79.60167969 64.12859375 79.20335938 63.6796875 78.79296875 C59.20037535 74.80812612 55.19244682 71.55520814 49.125 70.5 C44.55288149 71.23153896 41.38978537 72.83427294 38 76 C32.61198995 83.75008896 33.15985413 93.92725361 33 103 C32.98485352 103.69399902 32.96970703 104.38799805 32.95410156 105.10302734 C32.40473432 112.25220146 32.40473432 112.25220146 34 119 C26.74685135 118.39623297 19.65320288 117.33038005 12.5 116 C11.01886719 115.73316406 11.01886719 115.73316406 9.5078125 115.4609375 C2.2616342 114.1308171 2.2616342 114.1308171 0 113 C0 75.71 0 38.42 0 0 Z " fill="#FEFEFE" transform="translate(0,0)"/>
<path d="M0 0 C7.04299454 0.64027223 13.65164557 1.35544098 20.51953125 2.75 C21.39989044 2.92387741 22.28024963 3.09775482 23.18728638 3.27690125 C26.06340797 3.84611372 28.9379142 4.42308662 31.8125 5 C33.84761889 5.4040003 35.88285892 5.80739077 37.91821289 6.21020508 C42.15265555 7.04873864 46.38656468 7.88989443 50.62011719 8.73291016 C59.74773517 10.54839118 68.88146412 12.33257273 78.01525879 14.1166687 C80.94742551 14.68943885 83.87948864 15.26273655 86.81152344 15.83618164 C91.3999225 16.7335136 95.98843722 17.63025189 100.57702637 18.52661133 C102.77307514 18.95566454 104.9690638 19.38502391 107.16503906 19.81445312 C120.01664554 22.32518635 132.87512365 24.79381751 145.74609375 27.203125 C150.16415301 28.03076771 154.58211893 28.85890666 159 29.6875 C160.68242294 30.0029628 160.68242294 30.0029628 162.39883423 30.32479858 C181.37725179 33.88865621 200.31508793 37.63607953 219.24368286 41.45483398 C237.79178759 45.19441489 256.36248546 48.73533559 275 52 C275 59.26 275 66.52 275 74 C184.25 74 93.5 74 0 74 C0 49.58 0 25.16 0 0 Z " fill="#FEFEFE" transform="translate(0,117)"/>
<path d="M0 0 C5.41972912 4.13521951 9.04047739 10.55138923 11 17 C11.25 20.5625 11.25 20.5625 11 23 C11.57903076 23.02578125 12.15806152 23.0515625 12.75463867 23.078125 C20.06680037 23.58574376 26.44031026 25.53087878 33.3125 28 C34.44244385 28.39936768 35.5723877 28.79873535 36.73657227 29.21020508 C51.23943049 34.41476533 65.73582892 40.07877371 79 48 C79.65226563 47.52949219 80.30453125 47.05898437 80.9765625 46.57421875 C94.68070953 36.81152993 94.68070953 36.81152993 103 38 C106.55653018 40.78565664 108.66758315 44.37336194 109.23828125 48.8828125 C109.64811567 61.26412608 105.58708229 73.52702847 100.84326172 84.82275391 C99.3864524 88.39216797 98.74938249 90.35657496 100 94 C100.67025182 95.34861765 101.38904248 96.67377941 102.14453125 97.9765625 C102.57258057 98.72526611 103.00062988 99.47396973 103.44165039 100.24536133 C103.89403076 101.03064209 104.34641113 101.81592285 104.8125 102.625 C110.91199735 113.40563236 115.21243403 122.46639247 115 135 C115.55985596 135.08564209 116.11971191 135.17128418 116.6965332 135.25952148 C119.23561208 135.64948061 121.77405368 136.04344516 124.3125 136.4375 C125.19357422 136.57220703 126.07464844 136.70691406 126.98242188 136.84570312 C127.82998047 136.97783203 128.67753906 137.10996094 129.55078125 137.24609375 C130.33106689 137.36654053 131.11135254 137.4869873 131.9152832 137.61108398 C134 138 134 138 137 139 C137 139.99 137 140.98 137 142 C128.12147767 141.4830738 119.61183316 140.10454679 110.91015625 138.3046875 C109.57125834 138.03310578 108.23222474 137.76219224 106.89306641 137.49189758 C104.07166801 136.92127598 101.25110931 136.34674179 98.43118286 135.76889038 C91.80250828 134.41094893 85.1694737 133.07454734 78.53689384 131.73583794 C76.35171972 131.2945781 74.16670263 130.85254709 71.98170471 130.41041565 C61.35570151 128.26210995 50.71906637 126.17887625 40.0625 124.1875 C39.35267975 124.05458557 38.6428595 123.92167114 37.91152954 123.784729 C35.0831791 123.25533643 32.25467772 122.7267672 29.42585754 122.19989014 C20.69607924 120.57363015 11.97299973 118.91217434 3.25 117.25 C2.39763763 117.08760834 1.54527527 116.92521667 0.66708374 116.75790405 C-33.12710205 110.31679508 -66.92020754 103.8667592 -100.64434814 97.06713867 C-113.07048299 94.56261204 -125.51161139 92.17687508 -138 90 C-138 88.68 -138 87.36 -138 86 C-116.95228588 89.37563146 -96.0583459 93.49239464 -75.1496582 97.62915039 C-72.68832225 98.11609086 -70.2269778 98.60298844 -67.765625 99.08984375 C-66.53909714 99.33249466 -65.31256927 99.57514557 -64.0488739 99.82514954 C-51.27107975 102.34889037 -38.4800311 104.80226743 -25.6875 107.25 C-11.30042669 110.00437523 3.07854115 112.78998105 17.4375 115.6875 C36.11363173 119.45522172 54.836005 122.96915466 73.56176758 126.48034668 C78.75436391 127.45417019 83.94662948 128.42972509 89.13848877 129.4074707 C91.57947892 129.86644084 94.02092573 130.32292273 96.46240234 130.77929688 C97.94631234 131.05847007 99.43020027 131.33776053 100.9140625 131.6171875 C101.59035706 131.74290131 102.26665161 131.86861511 102.96343994 131.99813843 C105.72750192 132.52093253 108.32617043 133.10872348 111 134 C110.21351097 119.86856802 103.73477373 105.77604141 94.8984375 94.7890625 C93.57700815 92.15769449 94.14703393 90.79225686 95 88 C95.92677166 85.64699889 96.88382312 83.32496797 97.875 81 C102.6040203 69.43326296 105.60653302 57.56875833 104 45 C102.80283289 43.0188891 102.80283289 43.0188891 101 42 C93.90411891 41.70433829 88.54594496 45.95534587 83 50 C82.47921875 50.59039062 81.9584375 51.18078125 81.421875 51.7890625 C80.95265625 52.18867187 80.4834375 52.58828125 80 53 C76.71929019 52.54754831 74.66911088 51.21034439 72.03515625 49.2734375 C66.51185869 45.49510994 60.63939948 43.08010478 54.4375 40.625 C53.26670898 40.15602295 52.09591797 39.6870459 50.88964844 39.20385742 C42.90910732 36.04869732 34.87317213 33.07958821 26.75 30.3125 C25.7695874 29.9736377 24.7891748 29.63477539 23.77905273 29.28564453 C18.64585174 27.59146847 14.40747813 26.6041487 9 27 C8.85304687 26.24976562 8.70609375 25.49953125 8.5546875 24.7265625 C6.90281668 17.1887152 4.34992103 11.36299128 0 5 C-2.88490798 4.8797955 -4.37192221 4.91989985 -7 6 C-10.85094485 9.7381242 -13.90285743 14.123379 -16.60546875 18.74609375 C-19.7324268 23.94224873 -21.8594408 26.40356558 -27.8125 28 C-29.48505859 28.40798828 -29.48505859 28.40798828 -31.19140625 28.82421875 C-46.23931634 33.46977868 -59.29571521 43.77070941 -70 55 C-69.34 57.31 -68.68 59.62 -68 62 C-69.32 62 -70.64 62 -72 62 C-74 59.69921875 -74 59.69921875 -76 56.6875 C-79.32929682 51.66778471 -79.32929682 51.66778471 -84 48 C-88.60855105 47.47967972 -91.03610853 47.59989411 -95.3125 49.375 C-102.36018099 56.25878143 -101.52160454 67.42017189 -101.6875 76.625 C-101.72166016 77.91535156 -101.75582031 79.20570312 -101.79101562 80.53515625 C-101.87280832 83.69001717 -101.94218232 86.8446241 -102 90 C-103.32 90 -104.64 90 -106 90 C-106.47296274 56.84005682 -106.47296274 56.84005682 -101 49 C-97.68993718 45.65677022 -94.39537098 43.31991599 -89.66015625 42.6875 C-82.46316781 43.08118142 -77.84661059 47.03730293 -73 52 C-72.45214844 51.39414063 -71.90429688 50.78828125 -71.33984375 50.1640625 C-59.93388741 38.10898669 -43.79798394 26.76088283 -27.32421875 23.20703125 C-22.82363528 21.57285934 -21.31813514 19.12146821 -18.8125 15.1875 C-17.98688498 13.95101554 -17.16008018 12.7153246 -16.33203125 11.48046875 C-15.7445813 10.59210327 -15.7445813 10.59210327 -15.14526367 9.68579102 C-11.22317782 3.91260773 -7.51132356 -0.84731394 0 0 Z " fill="#141414" transform="translate(138,27)"/>
<path d="M0 0 C5.39245771 2.39547534 9.68293913 6.38567136 12.80859375 11.38671875 C12.80859375 12.70671875 12.80859375 14.02671875 12.80859375 15.38671875 C9.67539498 14.03527464 7.99105365 12.65181438 5.93359375 9.94921875 C2.28923526 5.56502809 -0.95754774 3.66595106 -6.69140625 2.94921875 C-11.10496178 3.50091319 -12.89345589 4.37554669 -16.19140625 7.38671875 C-21.62709001 15.09680703 -22.17751976 22.19657767 -20.7265625 31.3046875 C-20.26725014 33.68171279 -19.762887 36.03446316 -19.19140625 38.38671875 C-21.06640625 38.26171875 -21.06640625 38.26171875 -23.19140625 37.38671875 C-26.63197467 30.13184604 -26.54069238 19.96734249 -24.28125 12.296875 C-19.45863769 1.98485832 -11.40015612 -3.19041802 0 0 Z " fill="#121212" transform="translate(204.19140625,105.61328125)"/>
<path d="M0 0 C2.96175123 0.61277612 4.38058783 1.25372522 7 3 C12.33468429 3.38464895 12.33468429 3.38464895 17 1 C17.66 2.65 18.32 4.3 19 6 C22.465 5.505 22.465 5.505 26 5 C26 6.32 26 7.64 26 9 C25 10 25 10 22.0625 10.1875 C19 10 19 10 17 8 C15.05440985 7.94772236 15.05440985 7.94772236 12.875 8.1875 C8.13182779 8.3104996 5.35441581 6.93181377 1.43359375 4.38671875 C0.96050781 3.92910156 0.48742187 3.47148438 0 3 C0 2.01 0 1.02 0 0 Z " fill="#151515" transform="translate(114,112)"/>
<path d="M0 0 C3.0625 0.375 3.0625 0.375 5 2 C6.41418205 5.16111281 5.94127792 7.07958281 5.0625 10.375 C4.0625 11.375 4.0625 11.375 1.1875 11.6875 C-1.9375 11.375 -1.9375 11.375 -3.8125 9.6875 C-5.12550244 6.98855053 -5.32770396 5.34055007 -4.9375 2.375 C-2.9375 0.375 -2.9375 0.375 0 0 Z " fill="#FF94E9" transform="translate(195.9375,118.625)"/>
<path d="M0 0 C3.5 0.1875 3.5 0.1875 7 1 C9.14915785 4.22373677 9.38286803 5.26703674 9 9 C7 11 7 11 4.0625 11.375 C1 11 1 11 -0.875 9.3125 C-2.18800244 6.61355053 -2.39020396 4.96555007 -2 2 C-1.34 1.34 -0.68 0.68 0 0 Z " fill="#FF94E9" transform="translate(48,85)"/>
<path d="M0 0 C2 2 2 2 2.3125 4.4375 C2 7 2 7 0.8125 8.8125 C-1.64907776 10.42525784 -3.11065736 10.4334014 -6 10 C-7.8125 8.8125 -7.8125 8.8125 -9 7 C-9.4375 4.5 -9.4375 4.5 -9 2 C-6.07557433 -1.24936186 -4.04996841 -1.38551551 0 0 Z " fill="#131313" transform="translate(173,109)"/>
<path d="M0 0 C1.875 1.6875 1.875 1.6875 3 4 C2.8125 6.6875 2.8125 6.6875 2 9 C-0.76250036 10.38125018 -2.94731099 10.19079306 -6 10 C-8 8 -8 8 -8.3125 5.5625 C-8 3 -8 3 -6.8125 1.1875 C-4.32762734 -0.44052002 -2.91288568 -0.50975499 0 0 Z " fill="#0B0B0B" transform="translate(108,92)"/>
</svg>
